<svg xmlns="http://www.w3.org/2000/svg" viewBox="0 0 200 60" width="200" height="60">
  <defs>
    <style>
      .cyan { fill: #25B4D8; }
      .text-dumoh { font-family: 'Space Grotesk', 'Inter', sans-serif; font-weight: 800; font-size: 32px; }
      .text-delivery { font-family: 'Space Grotesk', 'Inter', sans-serif; font-weight: 300; font-size: 14px; letter-spacing: 0.35em; }
    </style>
  </defs>
  <g transform="translate(10, 5) scale(1.2)">
    <path class="cyan" d="M15,0 h12 a8,8 0 0,1 8,8 v14 a8,8 0 0,1 -8,8 h-12 v-30" />
    <path fill="#fff" d="M20,8 h3 a2,2 0 0,1 2,2 v10 a2,2 0 0,1 -2,2 h-3 v-14" />
    <rect class="cyan" x="0" y="0" width="6" height="3" />
    <rect class="cyan" x="8" y="0" width="4" height="3" />
    <rect class="cyan" x="0" y="5" width="8" height="3" />
    <rect class="cyan" x="10" y="5" width="3" height="3" />
    <rect class="cyan" x="4" y="10" width="9" height="3" />
    <rect class="cyan" x="0" y="15" width="6" height="3" />
    <rect class="cyan" x="8" y="15" width="5" height="3" />
    <rect class="cyan" x="4" y="20" width="4" height="3" />
    <rect class="cyan" x="10" y="20" width="3" height="3" />
    <rect class="cyan" x="8" y="25" width="4" height="3" />
  </g>
  <text x="65" y="32" class="cyan text-dumoh">dumoh</text>
  <text x="67" y="48" class="cyan text-delivery">delivery</text>
</svg>
